<svg xmlns="http://www.w3.org/2000/svg" viewBox="0 0 14.36 16.44"><title>低音谱号</title><g id="图层_2" data-name="图层 2"><g id="图层_1-2" data-name="图层 1"><path d="M3.41,14.26C6.33,11.64,8.15,8.17,8.15,5,8.15,2.52,6.72.63,4.46.63,2.86.63,1.11,2,1.11,3.37c0,.22,0,.32.14.32a1.85,1.85,0,0,1,1.37-.64A1.66,1.66,0,0,1,4.17,4.76,2.08,2.08,0,0,1,2.06,7C.81,7,0,5.65,0,4.13,0,1.79,2.3,0,4.84,0c4.66,0,5.87,3.19,5.87,5.83,0,1.65-.43,2.9-2,5.32-1.91,3-6.43,5.29-8.06,5.29-.41,0-.61-.15-.63-.45A9,9,0,0,0,3.41,14.26Zm10-12.69a1,1,0,1,1-1,1A1,1,0,0,1,13.37,1.57Zm0,4.94a1,1,0,1,1-1,1A1,1,0,0,1,13.37,6.51Z"/></g></g></svg>