<svg xmlns="http://www.w3.org/2000/svg" viewBox="0 0 8.69 66.97"><defs><style>.cls-1{fill:none;stroke:#000;stroke-linejoin:bevel;stroke-width:0.78px;}</style></defs><title>括号</title><g id="图层_2" data-name="图层 2"><g id="图层_1-2" data-name="图层 1"><line class="cls-1" x1="8.3" y1="0.01" x2="8.3" y2="66.97"/><path d="M7.46.67C5.53,1.74,3.8,6.43,3.8,10.11c0,2.28,1.4,9.91,1.4,12.26C5.2,27.32,3.66,31,.6,33.49q4.59,3.61,4.6,11c0,2.27-1.4,9.91-1.4,12.25,0,3.82,1.73,8.44,3.66,9.51V67c-3.53-2.28-5.79-8.24-5.79-13.06,0-2.14,1.73-9.37,1.73-11.52,0-3.81-1-6.56-2.93-8.24-.34-.26-.47-.46-.47-.66s.13-.41.47-.67C2.4,31.14,3.4,28.6,3.4,25.25c0-2.15-1.73-10-1.73-12.19C1.67,7.9,3.73,2.68,7.46,0Z"/></g></g></svg>