<svg xmlns="http://www.w3.org/2000/svg" viewBox="0 0 6.33 7.5"><title>8度</title><g id="图层_2" data-name="图层 2"><g id="图层_1-2" data-name="图层 1"><path d="M6.33,1.9c0,.82-.54,1.43-1.61,1.89a3.08,3.08,0,0,1,.79,1.76c0,1.29-1,2-2.91,2-1.43,0-2.6-.79-2.6-2,0-.85.67-1.52,2-2A2.69,2.69,0,0,1,1.39,1.9C1.39.77,2.52,0,3.91,0,5.08,0,6.33.87,6.33,1.9ZM1,5.67A1.62,1.62,0,0,0,2.68,7.08c.77,0,1.39-.32,1.39-.85,0-.7-.16-.85-1.75-2.44A2.28,2.28,0,0,0,1,5.67ZM2.9,1.31c0,.67.17.91,1.54,2.18a1.91,1.91,0,0,0,1-1.66A1.48,1.48,0,0,0,4,.44C3.47.44,2.9.81,2.9,1.31Z"/></g></g></svg>